<svg width="25" height="25" viewBox="0 0 25 25" fill="none" xmlns="http://www.w3.org/2000/svg">
<rect y="-0.000976562" width="25" height="25" rx="12.5" fill="url(#paint0_linear_77_66)"/>
<path d="M10.19 17.0256C9.82677 16.6506 9.82677 16.0426 10.19 15.6676L17.6431 7.97264C18.0063 7.59766 18.5951 7.59766 18.9583 7.97264C19.3215 8.34763 19.3215 8.9556 18.9583 9.33058L11.5052 17.0256C11.142 17.4005 10.5532 17.4005 10.19 17.0256Z" fill="white"/>
<path d="M6.68262 12.0465C7.04581 11.6715 7.63467 11.6715 7.99787 12.0465L11.5052 15.6676C11.8684 16.0426 11.8684 16.6506 11.5052 17.0256C11.142 17.4005 10.5532 17.4005 10.19 17.0256L6.68262 13.4044C6.31942 13.0294 6.31942 12.4214 6.68262 12.0465Z" fill="white"/>
<defs>
<linearGradient id="paint0_linear_77_66" x1="12.5" y1="15.5229" x2="28.1112" y2="11.1782" gradientUnits="userSpaceOnUse">
<stop stop-color="#FA8111"/>
<stop offset="1" stop-color="#FAAA11"/>
</linearGradient>
</defs>
</svg>
