<svg width="324" height="90" viewBox="0 0 324 90" fill="none" xmlns="http://www.w3.org/2000/svg">
<path d="M118.322 5.314C120.639 5.314 122.546 6.084 124.042 7.624C125.552 9.14933 126.308 11.0413 126.308 13.3C126.308 15.5587 125.552 17.458 124.042 18.998C122.546 20.5233 120.639 21.286 118.322 21.286C116.914 21.286 115.616 20.956 114.428 20.296C113.254 19.6213 112.338 18.7193 111.678 17.59L113.878 16.336C114.288 17.0987 114.89 17.7073 115.682 18.162C116.474 18.602 117.354 18.822 118.322 18.822C119.744 18.822 120.932 18.426 121.886 17.634C122.839 16.842 123.433 15.7933 123.668 14.488H116.276V12.112H123.668C123.433 10.8067 122.839 9.758 121.886 8.966C120.932 8.174 119.744 7.778 118.322 7.778C117.354 7.778 116.474 8.00533 115.682 8.46C114.89 8.9 114.288 9.50133 113.878 10.264L111.678 8.988C112.338 7.85867 113.254 6.964 114.428 6.304C115.616 5.644 116.914 5.314 118.322 5.314ZM136.878 10V12.288H133.292V21H130.916V12.288H127.308V10H136.878ZM143.248 21.286C141.635 21.286 140.263 20.7287 139.134 19.614C138.005 18.4993 137.44 17.128 137.44 15.5C137.44 13.872 138.005 12.5007 139.134 11.386C140.263 10.2713 141.635 9.714 143.248 9.714C144.876 9.714 146.247 10.2713 147.362 11.386C148.491 12.5007 149.056 13.872 149.056 15.5C149.056 17.128 148.491 18.4993 147.362 19.614C146.247 20.7287 144.876 21.286 143.248 21.286ZM140.806 17.986C141.466 18.646 142.28 18.976 143.248 18.976C144.216 18.976 145.03 18.646 145.69 17.986C146.35 17.326 146.68 16.4973 146.68 15.5C146.68 14.5027 146.35 13.674 145.69 13.014C145.03 12.354 144.216 12.024 143.248 12.024C142.28 12.024 141.466 12.354 140.806 13.014C140.146 13.674 139.816 14.5027 139.816 15.5C139.816 16.4973 140.146 17.326 140.806 17.986ZM164.316 15.346C165.402 15.8447 165.944 16.688 165.944 17.876C165.944 18.8 165.629 19.5553 164.998 20.142C164.382 20.714 163.495 21 162.336 21H156.704V10H161.896C163.026 10 163.898 10.286 164.514 10.858C165.145 11.4153 165.46 12.1413 165.46 13.036C165.46 14.0773 165.079 14.8473 164.316 15.346ZM161.72 12.024H158.97V14.466H161.72C162.688 14.466 163.172 14.0553 163.172 13.234C163.172 12.4273 162.688 12.024 161.72 12.024ZM162.116 18.932C163.114 18.932 163.612 18.4993 163.612 17.634C163.612 17.2527 163.48 16.9593 163.216 16.754C162.952 16.534 162.586 16.424 162.116 16.424H158.97V18.932H162.116ZM173.068 21.286C171.411 21.286 170.025 20.7287 168.91 19.614C167.81 18.4993 167.26 17.128 167.26 15.5C167.26 13.8573 167.81 12.486 168.91 11.386C170.025 10.2713 171.411 9.714 173.068 9.714C174.139 9.714 175.114 9.97067 175.994 10.484C176.874 10.9973 177.534 11.6867 177.974 12.552L175.928 13.74C175.679 13.212 175.298 12.8013 174.784 12.508C174.286 12.2 173.706 12.046 173.046 12.046C172.078 12.046 171.264 12.376 170.604 13.036C169.959 13.696 169.636 14.5173 169.636 15.5C169.636 16.4827 169.959 17.304 170.604 17.964C171.264 18.624 172.078 18.954 173.046 18.954C173.692 18.954 174.271 18.8 174.784 18.492C175.312 18.184 175.708 17.7733 175.972 17.26L178.018 18.426C177.549 19.306 176.874 20.0027 175.994 20.516C175.114 21.0293 174.139 21.286 173.068 21.286ZM183.458 8.284C183.208 8.53333 182.9 8.658 182.534 8.658C182.167 8.658 181.852 8.53333 181.588 8.284C181.338 8.02 181.214 7.70467 181.214 7.338C181.214 6.97133 181.338 6.66333 181.588 6.414C181.852 6.15 182.167 6.018 182.534 6.018C182.9 6.018 183.208 6.15 183.458 6.414C183.722 6.66333 183.854 6.97133 183.854 7.338C183.854 7.70467 183.722 8.02 183.458 8.284ZM187.638 8.284C187.388 8.53333 187.08 8.658 186.714 8.658C186.347 8.658 186.032 8.53333 185.768 8.284C185.518 8.02 185.394 7.70467 185.394 7.338C185.394 6.97133 185.518 6.66333 185.768 6.414C186.032 6.15 186.347 6.018 186.714 6.018C187.08 6.018 187.388 6.15 187.638 6.414C187.902 6.66333 188.034 6.97133 188.034 7.338C188.034 7.70467 187.902 8.02 187.638 8.284ZM181.434 16.512C181.61 17.348 182.013 17.9933 182.644 18.448C183.274 18.888 184.044 19.108 184.954 19.108C186.215 19.108 187.161 18.6533 187.792 17.744L189.75 18.888C188.664 20.4867 187.058 21.286 184.932 21.286C183.142 21.286 181.698 20.7433 180.598 19.658C179.498 18.558 178.948 17.172 178.948 15.5C178.948 13.8573 179.49 12.486 180.576 11.386C181.661 10.2713 183.054 9.714 184.756 9.714C186.369 9.714 187.689 10.2787 188.716 11.408C189.757 12.5373 190.278 13.9087 190.278 15.522C190.278 15.7713 190.248 16.1013 190.19 16.512H181.434ZM181.412 14.576H187.88C187.718 13.6813 187.344 13.0067 186.758 12.552C186.186 12.0973 185.511 11.87 184.734 11.87C183.854 11.87 183.12 12.112 182.534 12.596C181.947 13.08 181.573 13.74 181.412 14.576ZM198.022 15.456V13.168H211.442V15.456H198.022Z" fill="#21212B"/>
<path d="M33.7793 47.5603H44.5121V88.8444H33.7793V83.9729C30.5622 87.9912 26.0416 90.0004 20.2176 90.0004C14.671 90.0004 9.90082 87.9086 5.90721 83.7252C1.96907 79.4867 0 74.3124 0 68.2023C0 62.0923 1.96907 56.9455 5.90721 52.7621C9.90082 48.5236 14.671 46.4043 20.2176 46.4043C26.0416 46.4043 30.5622 48.4135 33.7793 52.4318V47.5603ZM13.9776 76.6243C16.1408 78.7711 18.8864 79.8445 22.2144 79.8445C25.5424 79.8445 28.2881 78.7711 30.4513 76.6243C32.6699 74.4225 33.7793 71.6152 33.7793 68.2023C33.7793 64.7895 32.6699 62.0097 30.4513 59.8629C28.2881 57.6611 25.5424 56.5602 22.2144 56.5602C18.8864 56.5602 16.1408 57.6611 13.9776 59.8629C11.8144 62.0097 10.7328 64.7895 10.7328 68.2023C10.7328 71.6152 11.8144 74.4225 13.9776 76.6243Z" fill="#21212B"/>
<path d="M67.307 78.8537H85.7774V88.8444H52.9133V81.7435L70.4686 57.551H53.7453V47.5603H84.9454V54.6611L67.307 78.8537Z" fill="#21212B"/>
<path d="M210.341 89.4499C209.343 89.4499 208.492 89.1013 207.79 88.4041C207.087 87.7068 206.736 86.8628 206.736 85.872C206.736 84.8811 207.087 84.0371 207.79 83.3399C208.492 82.6426 209.343 82.294 210.341 82.294C211.377 82.294 212.227 82.6426 212.893 83.3399C213.595 84.0371 213.947 84.8811 213.947 85.872C213.947 86.8628 213.595 87.7068 212.893 88.4041C212.227 89.1013 211.377 89.4499 210.341 89.4499Z" fill="#21212B"/>
<path d="M232.561 65.9455H225.184V80.8628C225.184 82.2206 225.443 83.1931 225.96 83.7802C226.515 84.3307 227.347 84.6243 228.456 84.661C229.566 84.661 230.934 84.6243 232.561 84.5509V88.8444C228.345 89.3949 225.258 89.0646 223.298 87.8536C221.338 86.6059 220.358 84.2756 220.358 80.8628V65.9455H214.867V61.3216H220.358V55.0464L225.184 53.6153V61.3216H232.561V65.9455Z" fill="#21212B"/>
<path d="M240.249 77.2849C240.73 79.7436 241.858 81.6518 243.633 83.0096C245.444 84.3674 247.663 85.0463 250.289 85.0463C253.949 85.0463 256.612 83.7068 258.276 81.028L262.38 83.3399C259.681 87.4866 255.613 89.56 250.178 89.56C245.777 89.56 242.19 88.2022 239.417 85.4866C236.681 82.7344 235.313 79.2665 235.313 75.083C235.313 70.9363 236.662 67.4867 239.362 64.7345C242.061 61.9822 245.555 60.606 249.845 60.606C253.912 60.606 257.222 62.0372 259.773 64.8996C262.362 67.7253 263.656 71.1381 263.656 75.1381C263.656 75.8353 263.601 76.5509 263.49 77.2849H240.249ZM249.845 65.1198C247.256 65.1198 245.112 65.8537 243.411 67.3216C241.71 68.7528 240.656 70.6794 240.249 73.1014H258.775C258.368 70.4959 257.333 68.5143 255.669 67.1565C254.005 65.7987 252.064 65.1198 249.845 65.1198Z" fill="#21212B"/>
<path d="M282.184 89.56C278.005 89.56 274.529 88.1839 271.756 85.4316C268.983 82.6426 267.596 79.1931 267.596 75.083C267.596 70.973 268.983 67.5418 271.756 64.7895C274.529 62.0005 278.005 60.606 282.184 60.606C284.92 60.606 287.379 61.2666 289.561 62.5877C291.742 63.8721 293.37 65.6152 294.442 67.817L290.393 70.1289C289.69 68.661 288.599 67.4867 287.12 66.606C285.678 65.7253 284.033 65.2849 282.184 65.2849C279.41 65.2849 277.081 66.2207 275.195 68.0922C273.346 69.9638 272.422 72.2941 272.422 75.083C272.422 77.8353 273.346 80.1472 275.195 82.0188C277.081 83.8903 279.41 84.8261 282.184 84.8261C284.033 84.8261 285.697 84.4041 287.176 83.56C288.655 82.6793 289.783 81.505 290.559 80.0371L294.664 82.4041C293.48 84.5692 291.779 86.3123 289.561 87.6334C287.342 88.9178 284.883 89.56 282.184 89.56Z" fill="#21212B"/>
<path d="M313.239 60.606C316.493 60.606 319.1 61.6336 321.06 63.6886C323.02 65.7069 324 68.4592 324 71.9454V88.8444H319.174V72.2207C319.174 69.9821 318.564 68.2574 317.344 67.0464C316.124 65.7987 314.441 65.1748 312.297 65.1748C309.893 65.1748 307.952 65.9271 306.473 67.4317C304.993 68.8996 304.254 71.1748 304.254 74.2573V88.8444H299.428V50.3125H304.254V65.2849C306.214 62.1657 309.209 60.606 313.239 60.606Z" fill="#21212B"/>
<path d="M125.267 47.5596H136V88.8437H125.267V83.9722C122.05 87.9905 117.529 89.9997 111.705 89.9997C106.159 89.9997 101.389 87.908 97.3949 83.7245C93.4568 79.486 91.4877 74.3117 91.4877 68.2017C91.4877 62.0916 93.4568 56.9448 97.3949 52.7614C101.389 48.5229 106.159 46.4036 111.705 46.4036C117.529 46.4036 122.05 48.4128 125.267 52.4311V47.5596ZM105.465 76.6236C107.629 78.7704 110.374 79.8438 113.702 79.8438C117.03 79.8438 119.776 78.7704 121.939 76.6236C124.158 74.4218 125.267 71.6145 125.267 68.2017C125.267 64.7888 124.158 62.009 121.939 59.8623C119.776 57.6604 117.03 56.5595 113.702 56.5595C110.374 56.5595 107.629 57.6604 105.465 59.8623C103.302 62.009 102.221 64.7888 102.221 68.2017C102.221 71.6145 103.302 74.4218 105.465 76.6236Z" fill="#ED6E13"/>
<path d="M156.465 54.6604C157.464 52.0183 159.1 50.0366 161.374 48.7155C163.704 47.3944 166.283 46.7339 169.112 46.7339V58.6237C165.839 58.2384 162.899 58.899 160.292 60.6054C157.741 62.3118 156.465 65.1466 156.465 69.1099V88.8437H145.732V47.5596H156.465V54.6604Z" fill="#ED6E13"/>
<path d="M200.321 57.798H190.92V74.9723C190.92 76.4034 191.28 77.4493 192.001 78.1099C192.722 78.7704 193.776 79.1557 195.163 79.2658C196.55 79.3209 198.269 79.2933 200.321 79.1832V88.8437C192.944 89.6694 187.73 88.9814 184.68 86.7795C181.684 84.5777 180.187 80.642 180.187 74.9723V57.798H172.948V47.5596H180.187V39.2202L190.92 36V47.5596H200.321V57.798Z" fill="#ED6E13"/>
</svg>
