<svg width="24" height="24" viewBox="0 0 24 24" fill="none" xmlns="http://www.w3.org/2000/svg">
<path d="M17 24H7C3.1 24 0 20.9 0 17V7C0 3.1 3.1 0 7 0H10C10.6 0 11 0.4 11 1C11 1.6 10.6 2 10 2H7C4.2 2 2 4.2 2 7V17C2 19.8 4.2 22 7 22H17C19.8 22 22 19.8 22 17V14C22 13.4 22.4 13 23 13C23.6 13 24 13.4 24 14V17C24 20.9 20.9 24 17 24Z" fill="#21212B"/>
<path d="M14 11C13.7 11 13.4 10.9 13.2 10.7C13 10.5 12.9 10.2 12.9 10C12.9 9.7 13 9.5 13.2 9.3L20.3 2.2H15.4C14.8 2.2 14.3 1.7 14.3 1.1C14.5 0.5 15 0 15.5 0H22.9C23.1 0 23.3 0.1 23.5 0.2C23.8 0.4 24 0.7 24 1.1V8.5C24 8.8 23.9 9 23.7 9.2C23.5 9.4 23.2 9.5 23 9.5C22.4 9.5 21.9 9 21.9 8.4V3.5L14.8 10.6C14.6 10.9 14.3 11 14 11Z" fill="#21212B"/>
</svg>
