<svg width="141" height="25" viewBox="0 0 141 25" fill="none" xmlns="http://www.w3.org/2000/svg">
<path d="M14.804 6H19.448V24H14.804V21.876C13.412 23.628 11.456 24.504 8.936 24.504C6.536 24.504 4.472 23.592 2.744 21.768C1.04 19.92 0.188 17.664 0.188 15C0.188 12.336 1.04 10.092 2.744 8.268C4.472 6.42 6.536 5.496 8.936 5.496C11.456 5.496 13.412 6.372 14.804 8.124V6ZM6.236 18.672C7.172 19.608 8.36 20.076 9.8 20.076C11.24 20.076 12.428 19.608 13.364 18.672C14.324 17.712 14.804 16.488 14.804 15C14.804 13.512 14.324 12.3 13.364 11.364C12.428 10.404 11.24 9.924 9.8 9.924C8.36 9.924 7.172 10.404 6.236 11.364C5.3 12.3 4.832 13.512 4.832 15C4.832 16.488 5.3 17.712 6.236 18.672ZM29.3112 19.644H37.3032V24H23.0832V20.904L30.6792 10.356H23.4432V6H36.9432V9.096L29.3112 19.644ZM91.2009 24.264C90.7689 24.264 90.4009 24.112 90.0969 23.808C89.7929 23.504 89.6409 23.136 89.6409 22.704C89.6409 22.272 89.7929 21.904 90.0969 21.6C90.4009 21.296 90.7689 21.144 91.2009 21.144C91.6489 21.144 92.0169 21.296 92.3049 21.6C92.6089 21.904 92.7609 22.272 92.7609 22.704C92.7609 23.136 92.6089 23.504 92.3049 23.808C92.0169 24.112 91.6489 24.264 91.2009 24.264ZM100.815 14.016H97.6231V20.52C97.6231 21.112 97.7351 21.536 97.9591 21.792C98.1991 22.032 98.5591 22.16 99.0391 22.176C99.5191 22.176 100.111 22.16 100.815 22.128V24C98.9911 24.24 97.6551 24.096 96.8071 23.568C95.9591 23.024 95.5351 22.008 95.5351 20.52V14.016H93.1591V12H95.5351V9.264L97.6231 8.64V12H100.815V14.016ZM104.142 18.96C104.35 20.032 104.838 20.864 105.606 21.456C106.39 22.048 107.35 22.344 108.486 22.344C110.07 22.344 111.222 21.76 111.942 20.592L113.718 21.6C112.55 23.408 110.79 24.312 108.438 24.312C106.534 24.312 104.982 23.72 103.782 22.536C102.598 21.336 102.006 19.824 102.006 18C102.006 16.192 102.59 14.688 103.758 13.488C104.926 12.288 106.438 11.688 108.294 11.688C110.054 11.688 111.486 12.312 112.59 13.56C113.71 14.792 114.27 16.28 114.27 18.024C114.27 18.328 114.246 18.64 114.198 18.96H104.142ZM108.294 13.656C107.174 13.656 106.246 13.976 105.51 14.616C104.774 15.24 104.318 16.08 104.142 17.136H112.158C111.982 16 111.534 15.136 110.814 14.544C110.094 13.952 109.254 13.656 108.294 13.656ZM122.287 24.312C120.479 24.312 118.975 23.712 117.775 22.512C116.575 21.296 115.975 19.792 115.975 18C115.975 16.208 116.575 14.712 117.775 13.512C118.975 12.296 120.479 11.688 122.287 11.688C123.471 11.688 124.535 11.976 125.479 12.552C126.423 13.112 127.127 13.872 127.591 14.832L125.839 15.84C125.535 15.2 125.063 14.688 124.423 14.304C123.799 13.92 123.087 13.728 122.287 13.728C121.087 13.728 120.079 14.136 119.263 14.952C118.463 15.768 118.062 16.784 118.062 18C118.062 19.2 118.463 20.208 119.263 21.024C120.079 21.84 121.087 22.248 122.287 22.248C123.087 22.248 123.807 22.064 124.447 21.696C125.087 21.312 125.575 20.8 125.911 20.16L127.687 21.192C127.175 22.136 126.439 22.896 125.479 23.472C124.519 24.032 123.455 24.312 122.287 24.312ZM135.724 11.688C137.132 11.688 138.26 12.136 139.108 13.032C139.956 13.912 140.38 15.112 140.38 16.632V24H138.292V16.752C138.292 15.776 138.028 15.024 137.5 14.496C136.972 13.952 136.244 13.68 135.316 13.68C134.276 13.68 133.436 14.008 132.796 14.664C132.156 15.304 131.836 16.296 131.836 17.64V24H129.748V7.2H131.836V13.728C132.684 12.368 133.98 11.688 135.724 11.688Z" fill="#21212B"/>
<path d="M54.3899 6H59.0339V24H54.3899V21.876C52.9979 23.628 51.0419 24.504 48.5219 24.504C46.1219 24.504 44.0579 23.592 42.3299 21.768C40.6259 19.92 39.7739 17.664 39.7739 15C39.7739 12.336 40.6259 10.092 42.3299 8.268C44.0579 6.42 46.1219 5.496 48.5219 5.496C51.0419 5.496 52.9979 6.372 54.3899 8.124V6ZM45.8219 18.672C46.7579 19.608 47.9459 20.076 49.3859 20.076C50.8259 20.076 52.0139 19.608 52.9499 18.672C53.9099 17.712 54.3899 16.488 54.3899 15C54.3899 13.512 53.9099 12.3 52.9499 11.364C52.0139 10.404 50.8259 9.924 49.3859 9.924C47.9459 9.924 46.7579 10.404 45.8219 11.364C44.8859 12.3 44.4179 13.512 44.4179 15C44.4179 16.488 44.8859 17.712 45.8219 18.672ZM67.8891 9.096C68.3211 7.944 69.0291 7.08 70.0131 6.504C71.0211 5.928 72.1371 5.64 73.3611 5.64V10.824C71.9451 10.656 70.6731 10.944 69.5451 11.688C68.4411 12.432 67.8891 13.668 67.8891 15.396V24H63.2451V6H67.8891V9.096ZM86.8653 10.464H82.7973V17.952C82.7973 18.576 82.9533 19.032 83.2653 19.32C83.5773 19.608 84.0333 19.776 84.6333 19.824C85.2333 19.848 85.9773 19.836 86.8653 19.788V24C83.6733 24.36 81.4173 24.06 80.0973 23.1C78.8013 22.14 78.1533 20.424 78.1533 17.952V10.464H75.0213V6H78.1533V2.364L82.7973 0.959998V6H86.8653V10.464Z" fill="#ED6E13"/>
</svg>
