<svg width="25" height="25" viewBox="0 0 25 25" fill="none" xmlns="http://www.w3.org/2000/svg">
<rect opacity="0.1" y="-0.000976562" width="25" height="25" rx="12.5" fill="#21212B"/>
<g opacity="0.5">
<path d="M7.96079 17.0382C7.60267 16.6801 7.60267 16.0994 7.96079 15.7413L15.7421 7.96C16.1002 7.60188 16.6809 7.60187 17.039 7.96C17.3971 8.31812 17.3971 8.89876 17.039 9.25689L9.25768 17.0382C8.89955 17.3963 8.31892 17.3963 7.96079 17.0382Z" fill="#21212B"/>
<path d="M7.96079 7.96C8.31892 7.60188 8.89955 7.60188 9.25768 7.96L17.039 15.7413C17.3971 16.0994 17.3971 16.6801 17.039 17.0382C16.6809 17.3963 16.1002 17.3963 15.7421 17.0382L7.96079 9.25689C7.60267 8.89876 7.60267 8.31813 7.96079 7.96Z" fill="#21212B"/>
</g>
</svg>
