<svg width="24" height="24" viewBox="0 0 24 24" fill="none" xmlns="http://www.w3.org/2000/svg">
<path d="M23.6671 22.1133L19.6717 18.1179C21.3364 16.1202 22.2243 13.6786 22.2243 11.126C22.2243 8.12948 21.1145 5.35491 19.0058 3.24624C14.6775 -1.08208 7.57457 -1.08208 3.24624 3.24624C-1.08208 7.57457 -1.08208 14.5665 3.24624 18.8948C5.35491 21.1145 8.12948 22.2243 11.126 22.2243C13.6786 22.2243 16.1202 21.3364 18.1179 19.6717L22.1133 23.667C22.3353 23.889 22.5572 24 22.8902 24C23.2231 24 23.4451 23.889 23.6671 23.667C24.111 23.2231 24.111 22.5572 23.6671 22.1133ZM17.452 17.452C15.6763 19.1168 13.4566 20.0046 11.126 20.0046C8.79538 20.0046 6.46474 19.1168 4.8 17.452C1.35954 14.0116 1.35954 8.35145 4.8 4.91098C6.57572 3.13526 8.79538 2.2474 11.126 2.2474C13.4566 2.2474 15.6763 3.13526 17.452 4.8C19.1168 6.46474 20.0046 8.79537 20.0046 11.126C20.0046 13.4566 19.1168 15.6763 17.452 17.452Z" fill="white"/>
<path d="M15.5653 11.126C15.5653 11.6809 15.0104 12.2358 14.4555 12.2358H12.2358V14.4555C12.2358 15.0104 11.6809 15.5653 11.126 15.5653C10.5711 15.5653 10.0162 15.0104 10.0162 14.4555V12.2358H7.79653C7.24162 12.2358 6.68671 11.6809 6.68671 11.126C6.68671 10.5711 7.24162 10.0162 7.79653 10.0162H10.0162V7.79653C10.0162 7.24162 10.5711 6.6867 11.126 6.6867C11.6809 6.6867 12.2358 7.24162 12.2358 7.79653V10.0162H14.4555C15.0104 10.0162 15.5653 10.4601 15.5653 11.126Z" fill="white"/>
</svg>
